HIERARCHY
ROOT Hips
{
	OFFSET 0.000000 0.000000 0.000000 
	CHANNELS 6 Xposition Yposition Zposition Zrotation Yrotation Xrotation
	JOINT LeftUpLeg
	{
		OFFSET 1.363060 -1.794630 0.839290 
		CHANNELS 3 Zrotation Yrotation Xrotation
		JOINT LeftLeg
		{
			OFFSET 2.448110 -6.726130 0.000000 
			CHANNELS 3 Zrotation Yrotation Xrotation
			JOINT LeftFoot
			{
				OFFSET 2.562200 -7.039590 0.000000 
				CHANNELS 3 Zrotation Yrotation Xrotation
				JOINT LeftToeBase
				{
					OFFSET 0.157640 -0.433110 2.322550 
					CHANNELS 3 Zrotation Yrotation Xrotation
					End Site
					{
						OFFSET 0.000000 0.000000 0.000000 
					}
				}
			}
		}
	}
	JOINT RightUpLeg
	{
		OFFSET -1.305520 -1.794630 0.839290 
		CHANNELS 3 Zrotation Yrotation Xrotation
		JOINT RightLeg
		{
			OFFSET -2.542530 -6.985550 0.000000 
			CHANNELS 3 Zrotation Yrotation Xrotation
			JOINT RightFoot
			{
				OFFSET -2.568260 -7.056230 0.000000 
				CHANNELS 3 Zrotation Yrotation Xrotation
				JOINT RightToeBase
				{
					OFFSET -0.164730 -0.452590 2.363150 
					CHANNELS 3 Zrotation Yrotation Xrotation
					End Site
					{
						OFFSET 0.000000 0.000000 0.000000 
					}
				}
			}
		}
	}
	JOINT Spine
	{
		OFFSET 0.028270 2.035590 -0.193380 
		CHANNELS 3 Zrotation Yrotation Xrotation
		JOINT Spine1
		{
			OFFSET 0.056720 2.048850 -0.042750 
			CHANNELS 3 Zrotation Yrotation Xrotation
			JOINT Neck1
			{
				OFFSET -0.054170 1.746240 0.172020 
				CHANNELS 3 Zrotation Yrotation Xrotation
				JOINT Head
				{
					OFFSET 0.104070 1.761360 -0.123970 
					CHANNELS 3 Zrotation Yrotation Xrotation
					End Site
					{
						OFFSET 0.000000 0.000000 0.000000 
					}
				}
			}
			JOINT LeftArm
			{
				OFFSET 3.362410 1.200890 -0.311210 
				CHANNELS 3 Zrotation Yrotation Xrotation
				JOINT LeftForeArm
				{
					OFFSET 4.983000 -0.000000 -0.000000 
					CHANNELS 3 Zrotation Yrotation Xrotation
					JOINT LeftHand
					{
						OFFSET 3.483560 -0.000000 -0.000000 
						CHANNELS 3 Zrotation Yrotation Xrotation
						JOINT LeftHandIndex1
						{
							OFFSET 0.715260 -0.000000 -0.000000 
							CHANNELS 3 Zrotation Yrotation Xrotation
							End Site
							{
								OFFSET 0.000000 0.000000 0.000000 
							}
						}
					}
				}
			}
			JOINT RightArm
			{
				OFFSET -3.136600 1.374050 -0.404650 
				CHANNELS 3 Zrotation Yrotation Xrotation
				JOINT RightForeArm
				{
					OFFSET -5.241900 -0.000000 -0.000000 
					CHANNELS 3 Zrotation Yrotation Xrotation
					JOINT RightHand
					{
						OFFSET -3.444170 -0.000000 -0.000000 
						CHANNELS 3 Zrotation Yrotation Xrotation
						JOINT RightHandIndex1
						{
							OFFSET -0.622530 -0.000000 -0.000000 
							CHANNELS 3 Zrotation Yrotation Xrotation
							End Site
							{
								OFFSET 0.000000 0.000000 0.000000 
							}
						}
					}
				}
			}
		}
	}
}
MOTION
Frames: 13
Frame Time: 0.041667
-38.433065 18.040645 -3.265364 -10.571915 70.013180 -7.806900 -3.316888 -5.008982 -18.435589 -2.110219 7.944531 22.859639 6.065928 -9.393964 22.002356 1.691300 8.191100 23.295900 15.074645 16.934785 -2.210371 2.591084 -6.232638 18.620735 -3.113429 6.564875 -3.625588 -1.329600 -7.301900 20.613000 4.231464 0.098767 6.732577 2.066260 0.745325 -1.261455 2.154576 9.070977 0.037904 -0.361500 4.325200 0.521300 -81.450584 6.407886 22.719870 28.549388 -37.983965 -12.513262 0.569077 -1.594370 -0.736195 -7.125000 0.000000 0.000000 66.424898 -4.207419 43.539854 -33.897359 39.778273 -12.862029 0.669495 0.262288 2.093975 7.125000 0.000000 0.000000 
-38.437169 18.040132 -3.261876 -10.707819 70.069664 -7.957569 -3.285203 -4.971244 -18.466432 -2.106055 7.951845 22.888387 6.093664 -9.481532 22.016084 1.672000 8.146500 23.160000 15.133439 16.916686 -2.192655 2.596077 -6.223781 18.596139 -3.098318 6.522391 -3.644571 -1.325500 -7.291100 20.580600 4.238112 0.110322 6.719331 2.051228 0.752984 -1.254497 1.560131 9.214065 -0.451667 -0.601600 4.386700 0.344200 -81.443642 6.406437 22.745947 28.495348 -37.937722 -12.475239 0.570492 -1.594370 -0.741986 -7.125000 0.000000 0.000000 66.407966 -4.188222 43.457055 -33.793284 39.700622 -12.799609 0.675548 0.266454 2.173596 7.125000 0.000000 0.000000 
-38.439733 18.039106 -3.259414 -10.739337 70.177346 -7.986534 -3.293473 -4.969047 -18.509049 -2.106855 7.963662 22.924349 6.122502 -9.590677 22.030868 1.654900 8.106900 23.039100 15.134131 16.833724 -2.199929 2.599100 -6.212380 18.568671 -3.095779 6.508565 -3.661178 -1.331200 -7.306200 20.625700 4.232927 0.093613 6.719040 2.037696 0.746402 -1.193897 0.954813 9.344180 -0.902080 -0.846600 4.444400 0.184000 -81.438768 6.386343 22.776683 28.457570 -37.902475 -12.446536 0.570331 -1.594439 -0.728188 -7.125000 0.000000 0.000000 66.373328 -4.157103 43.353763 -33.659861 39.599249 -12.715326 0.676358 0.265775 2.229686 7.125000 0.000000 0.000000 
-38.443631 18.038285 -3.256234 -10.812421 70.278731 -8.065471 -3.295446 -4.921498 -18.565636 -2.106204 7.978402 22.975361 6.168986 -9.758396 22.060008 1.647600 8.089900 22.987500 15.148212 16.732040 -2.212497 2.604948 -6.196761 18.530100 -3.092694 6.503264 -3.637846 -1.325900 -7.292300 20.584200 4.231975 0.081050 6.689957 2.054214 0.740484 -1.152725 -0.400343 9.634144 -1.813772 -1.400500 4.580400 -0.130400 -81.433161 6.395855 22.831770 28.427657 -37.872171 -12.423261 0.571577 -1.594898 -0.750726 -7.125000 0.000000 0.000000 66.334109 -4.130215 43.231492 -33.545266 39.509487 -12.643016 0.675516 0.272281 2.279687 7.125000 0.000000 0.000000 
-38.445478 18.034695 -3.251618 -10.942100 70.332627 -8.202100 -3.287954 -4.785241 -18.647151 -2.089836 8.005952 23.051983 6.214534 -9.916202 21.936097 1.578000 7.925500 22.488100 15.199069 16.672997 -2.171954 2.614414 -6.174504 18.477572 -3.075170 6.463612 -3.598400 -1.296500 -7.214200 20.351500 4.245694 0.089139 6.700081 2.017160 0.746110 -1.146811 0.078019 9.478137 -1.409682 -1.220600 4.505700 -0.002300 -81.415385 6.428634 22.941320 28.362975 -37.823752 -12.376105 0.569301 -1.594935 -0.704055 -7.125000 0.000000 0.000000 66.331611 -4.129175 43.132210 -33.376244 39.385975 -12.537480 0.677421 0.267106 2.330142 7.125000 0.000000 0.000000 
-38.447837 18.031412 -3.247925 -11.069922 70.403894 -8.336483 -3.278566 -4.700064 -18.720718 -2.075829 8.036694 23.140591 6.263309 -10.093558 21.860078 1.539300 7.832200 22.205600 15.242158 16.597180 -2.134776 2.625625 -6.147199 18.410365 -3.061623 6.432191 -3.571981 -1.279600 -7.168600 20.215800 4.254275 0.087914 6.693316 1.996151 0.747057 -1.129412 -0.156246 9.496455 -1.531895 -1.326500 4.514100 -0.051500 -81.404875 6.449677 23.020434 28.311891 -37.782403 -12.338883 0.568757 -1.595373 -0.684931 -7.125000 0.000000 0.000000 66.310615 -4.122755 43.027944 -33.234368 39.280039 -12.450023 0.679421 0.267331 2.387407 7.125000 0.000000 0.000000 
-38.449889 18.027617 -3.244130 -11.225334 70.470491 -8.499655 -3.264213 -4.606162 -18.800456 -2.058199 8.073859 23.247178 6.317852 -10.293433 21.771789 1.502700 7.742800 21.935400 15.294672 16.517827 -2.083025 2.639881 -6.112801 18.325467 -3.046216 6.398808 -3.535691 -1.260500 -7.117000 20.062600 4.265700 0.086685 6.687438 1.969806 0.748241 -1.116069 -0.281680 9.488626 -1.571737 -1.387500 4.510400 -0.072500 -81.394457 6.475422 23.107038 28.257770 -37.739467 -12.299667 0.567993 -1.595929 -0.661812 -7.125000 0.000000 0.000000 66.290082 -4.117055 42.921406 -33.082753 39.166581 -12.356621 0.681386 0.267271 2.451817 7.125000 0.000000 0.000000 
-38.451530 18.023411 -3.240232 -11.411818 70.530093 -8.696774 -3.240740 -4.505193 -18.877365 -2.040319 8.109837 23.353333 6.375793 -10.502848 21.693924 1.471200 7.664600 21.700000 15.360056 16.440059 -2.021259 2.655123 -6.077039 18.236620 -3.030847 6.368539 -3.499132 -1.240000 -7.061100 19.896400 4.281377 0.086057 6.682128 1.940489 0.749702 -1.107840 -0.322785 9.463308 -1.549272 -1.412800 4.498500 -0.072000 -81.386750 6.505058 23.196103 28.199287 -37.693627 -12.257678 0.567145 -1.596599 -0.635217 -7.125000 0.000000 0.000000 66.266635 -4.115269 42.817294 -32.930279 39.052678 -12.263404 0.683724 0.267515 2.513143 7.125000 0.000000 0.000000 
-38.452658 18.019513 -3.236231 -11.617399 70.585558 -8.916005 -3.211441 -4.404871 -18.948200 -2.022902 8.144240 23.457518 6.434777 -10.715183 21.631758 1.447300 7.604800 21.520100 15.432053 16.361014 -1.954114 2.671410 -6.039262 18.142098 -3.018291 6.349153 -3.460981 -1.222700 -7.013400 19.755200 4.300122 0.083719 6.679243 1.909717 0.750256 -1.100283 -0.288556 9.423938 -1.468883 -1.406200 4.479900 -0.051200 -81.382713 6.534753 23.283708 28.135740 -37.643840 -12.212171 0.566180 -1.597201 -0.605405 -7.125000 0.000000 0.000000 66.239709 -4.112769 42.715791 -32.774580 38.936130 -12.168673 0.686266 0.267718 2.574282 7.125000 0.000000 0.000000 
-38.453582 18.016025 -3.232230 -11.843618 70.637990 -9.159732 -3.174716 -4.311294 -19.008229 -2.007030 8.174578 23.553092 6.492461 -10.921283 21.591818 1.430800 7.563400 21.395500 15.510689 16.277642 -1.886913 2.687880 -6.001527 18.046975 -3.009794 6.345382 -3.421119 -1.210100 -6.978600 19.651900 4.321511 0.079481 6.676912 1.879362 0.749635 -1.093058 -0.261078 9.387355 -1.381756 -1.401800 4.462900 -0.027500 -81.382191 6.562953 23.370004 28.068665 -37.590882 -12.164223 0.565266 -1.597626 -0.574953 -7.125000 0.000000 0.000000 66.208236 -4.109705 42.614037 -32.618499 38.818838 -12.074287 0.688912 0.268164 2.636177 7.125000 0.000000 0.000000 
-38.453889 18.013255 -3.228435 -12.064768 70.686680 -9.405659 -3.137172 -4.228262 -19.050654 -1.994657 8.198508 23.633708 6.546154 -11.112803 21.579800 1.424500 7.547400 21.347500 15.588070 16.192074 -1.820232 2.703483 -5.966049 17.957365 -3.007265 6.361084 -3.382347 -1.201400 -6.954400 19.580400 4.343244 0.073516 6.677683 1.850899 0.748055 -1.082628 -0.231950 9.352363 -1.294387 -1.395400 4.446700 -0.002900 -81.384151 6.586970 23.453245 27.995828 -37.532738 -12.112153 0.564396 -1.597817 -0.543980 -7.125000 0.000000 0.000000 66.172976 -4.105180 42.511154 -32.461841 38.700453 -11.979663 0.691288 0.268777 2.700009 7.125000 0.000000 0.000000 
-38.453992 18.011101 -3.224537 -12.281220 70.736150 -9.652160 -3.098869 -4.160713 -19.076154 -1.984751 8.216718 23.698732 6.593231 -11.280457 21.577611 1.420000 7.536100 21.313500 15.663469 16.101876 -1.758662 2.717718 -5.933691 17.875273 -3.009842 6.393189 -3.344438 -1.199400 -6.948700 19.563300 4.366222 0.064202 6.679655 1.827851 0.744230 -1.071475 -0.221522 9.324148 -1.203434 -1.397700 4.434000 0.023400 -81.392294 6.609199 23.530056 27.920209 -37.471702 -12.058102 0.563578 -1.597683 -0.511128 -7.125000 0.000000 0.000000 66.134114 -4.097951 42.407204 -32.305713 38.581706 -11.885764 0.693529 0.269401 2.761316 7.125000 0.000000 0.000000 
-38.453582 18.010075 -3.220741 -12.472903 70.784743 -9.880254 -3.064941 -4.110102 -19.082604 -1.977680 8.229303 23.748045 6.632090 -11.419325 21.586457 1.418800 7.532900 21.304000 15.730564 16.014706 -1.701982 2.730434 -5.904665 17.801727 -3.015230 6.433796 -3.303307 -1.199300 -6.948300 19.562300 4.388171 0.054249 6.681419 1.809829 0.739843 -1.061148 -0.214954 9.297470 -1.112304 -1.401400 4.422100 0.049700 -81.403456 6.631221 23.607739 27.840801 -37.407325 -12.001377 0.562812 -1.597206 -0.479004 -7.125000 0.000000 0.000000 66.095177 -4.095430 42.298228 -32.150335 38.463187 -11.792669 0.695586 0.269663 2.825218 7.125000 0.000000 0.000000 
